<svg xmlns="http://www.w3.org/2000/svg" width="24" height="24"><path d="M18 6.615v1.45c0 .34-.275.616-.616.616h-1.449a.615.615 0 0 1-.615-.616v-1.45c0-.34.274-.615.615-.615h1.449c.341 0 .616.275.616.615zm-1.131 4.699c.033.225.054.453.054.686a4.922 4.922 0 1 1-9.845 0c0-.233.021-.461.054-.686.031-.221.075-.437.134-.647H6v6.719c0 .339.275.614.616.614h10.769c.34 0 .615-.275.615-.615v-6.719h-1.265c.058.211.102.427.134.648zM12 15.077c1.699 0 3.078-1.378 3.078-3.077a3.078 3.078 0 0 0-6.155 0c0 1.7 1.378 3.077 3.077 3.077zM24 0v24H0V0h24zm-4 5.846A1.846 1.846 0 0 0 18.154 4H5.846A1.847 1.847 0 0 0 4 5.846v12.307C4 19.173 4.827 20 5.846 20h12.309A1.846 1.846 0 0 0 20 18.153V5.846z"/></svg>